<svg width="40" height="40" viewBox="0 0 40 40" fill="none" xmlns="http://www.w3.org/2000/svg">
<rect width="40" height="40" rx="8" fill="url(#paint0_linear_407_16647)"/>
<g filter="url(#filter0_i_407_16647)">
<path d="M24.9192 28.02C24.5593 28.02 24.1469 27.982 23.682 27.9059C23.2171 27.8451 22.7672 27.6929 22.3323 27.4495C21.9124 27.2061 21.56 26.841 21.275 26.3542C21.0051 25.8522 20.8701 25.1677 20.8701 24.3005V14.8764C20.8701 14.131 20.9826 13.5073 21.2075 13.0052C21.4325 12.5032 21.7324 12.1077 22.1073 11.8187C22.4822 11.5296 22.8947 11.3243 23.3446 11.2026C23.7945 11.0809 24.2369 11.02 24.6718 11.02C25.7965 11.02 26.7863 11.0352 27.6411 11.0656C28.5109 11.0961 29.2907 11.1341 29.9805 11.1797C30.6704 11.2102 31.3002 11.2558 31.8701 11.3166V14.1462H25.6615C25.1966 14.1462 24.8367 14.2603 24.5818 14.4885C24.3268 14.7166 24.1994 15.0665 24.1994 15.5381V17.9797L30.7904 18.1623V20.8321L24.1994 21.0146V23.3422C24.1994 23.7377 24.2593 24.0495 24.3793 24.2777C24.5143 24.4907 24.6868 24.6428 24.8967 24.7341C25.1217 24.8102 25.3541 24.8482 25.594 24.8482H31.8701V27.6777C31.2103 27.7538 30.4754 27.8146 29.6656 27.8603C28.8708 27.9059 28.061 27.9439 27.2362 27.9744C26.4264 28.0048 25.654 28.02 24.9192 28.02Z" fill="url(#paint1_linear_407_16647)"/>
<path d="M13.1934 28.02C12.7664 28.02 12.3246 28.0049 11.8681 27.9748C11.4263 27.9597 10.9698 27.9296 10.4986 27.8844C10.0421 27.8241 9.60773 27.7638 9.19542 27.7035C8.7831 27.6282 8.4076 27.5453 8.06891 27.4548V24.8099C8.51068 24.8551 9.01135 24.8928 9.57092 24.9229C10.1305 24.9531 10.7122 24.9757 11.3159 24.9907C11.9196 25.0058 12.4939 25.0134 13.0388 25.0134C13.5984 25.0134 14.0769 24.9681 14.4745 24.8777C14.8869 24.7722 15.2035 24.5989 15.4243 24.3578C15.6452 24.1016 15.7557 23.7549 15.7557 23.3179V22.7075C15.7557 22.2102 15.6084 21.8334 15.3139 21.5772C15.0341 21.3059 14.6292 21.1703 14.099 21.1703H12.7075C11.1466 21.1703 9.94642 20.8236 9.10706 20.1304C8.28243 19.422 7.87012 18.2239 7.87012 16.536V15.7221C7.87012 14.0945 8.32661 12.9039 9.23959 12.1503C10.1526 11.3968 11.4558 11.02 13.1492 11.02C13.753 11.02 14.3494 11.0501 14.9384 11.1104C15.5421 11.1707 16.1164 11.2461 16.6613 11.3365C17.2209 11.4118 17.6994 11.4947 18.097 11.5852V14.2301C17.4196 14.1849 16.6613 14.1397 15.8219 14.0945C14.9973 14.0493 14.2316 14.0267 13.5247 14.0267C13.0241 14.0267 12.5749 14.0794 12.1773 14.1849C11.7945 14.2753 11.5 14.4562 11.2938 14.7275C11.0877 14.9987 10.9846 15.383 10.9846 15.8804V16.3325C10.9846 16.9203 11.1466 17.3423 11.4705 17.5985C11.7945 17.8547 12.2731 17.9828 12.9063 17.9828H14.5187C15.5053 17.9828 16.3152 18.1712 16.9484 18.5479C17.5964 18.9096 18.0749 19.4145 18.3842 20.0626C18.7081 20.7106 18.8701 21.4491 18.8701 22.278V23.2275C18.8701 24.5386 18.6271 25.5408 18.1412 26.2341C17.67 26.9274 17.0073 27.4021 16.1532 27.6583C15.3139 27.8994 14.3273 28.02 13.1934 28.02Z" fill="url(#paint2_linear_407_16647)"/>
</g>
<defs>
<filter id="filter0_i_407_16647" x="7.87012" y="11.02" width="24" height="17.6" filterUnits="userSpaceOnUse" color-interpolation-filters="sRGB">
<feFlood flood-opacity="0" result="BackgroundImageFix"/>
<feBlend mode="normal" in="SourceGraphic" in2="BackgroundImageFix" result="shape"/>
<feColorMatrix in="SourceAlpha" type="matrix" values="0 0 0 0 0 0 0 0 0 0 0 0 0 0 0 0 0 0 127 0" result="hardAlpha"/>
<feOffset dy="0.6"/>
<feGaussianBlur stdDeviation="0.3"/>
<feComposite in2="hardAlpha" operator="arithmetic" k2="-1" k3="1"/>
<feColorMatrix type="matrix" values="0 0 0 0 1 0 0 0 0 1 0 0 0 0 1 0 0 0 0.25 0"/>
<feBlend mode="normal" in2="shape" result="effect1_innerShadow_407_16647"/>
</filter>
<linearGradient id="paint0_linear_407_16647" x1="20" y1="0" x2="20" y2="40" gradientUnits="userSpaceOnUse">
<stop stop-color="#F9F0FF"/>
<stop offset="1" stop-color="#EFDBFF"/>
</linearGradient>
<linearGradient id="paint1_linear_407_16647" x1="26.3701" y1="12.9089" x2="26.3701" y2="26.1311" gradientUnits="userSpaceOnUse">
<stop stop-color="#9254DE"/>
<stop offset="1" stop-color="#531DAB"/>
</linearGradient>
<linearGradient id="paint2_linear_407_16647" x1="13.3701" y1="12.9089" x2="13.3701" y2="26.1311" gradientUnits="userSpaceOnUse">
<stop stop-color="#9254DE"/>
<stop offset="1" stop-color="#531DAB"/>
</linearGradient>
</defs>
</svg>
