<svg width="40" height="40" viewBox="0 0 40 40" fill="none" xmlns="http://www.w3.org/2000/svg">
<rect width="40" height="40" rx="8" fill="url(#paint0_linear_407_16646)"/>
<g filter="url(#filter0_i_407_16646)">
<path d="M20.1504 26.65V11.65H23.2337V17.8933H29.0462V11.65H32.1504V26.65H29.0462V20.5892H23.2337V26.65H20.1504Z" fill="url(#paint1_linear_407_16646)"/>
<path d="M11.1995 27.65C10.8396 27.65 10.4271 27.6142 9.96225 27.5426C9.49736 27.4854 9.04746 27.3422 8.61256 27.1131C8.19265 26.884 7.84023 26.5404 7.5553 26.0822C7.28536 25.6097 7.15039 24.9655 7.15039 24.1493V15.2795C7.15039 14.578 7.26286 13.991 7.48781 13.5185C7.71276 13.046 8.01269 12.6737 8.38761 12.4017C8.76252 12.1297 9.17493 11.9364 9.62483 11.8218C10.0747 11.7073 10.5171 11.65 10.952 11.65C12.0768 11.65 13.0665 11.6643 13.9214 11.693C14.7912 11.7216 15.571 11.7574 16.2608 11.8004C16.9507 11.829 17.5805 11.8719 18.1504 11.9292V14.5923H11.9418C11.4769 14.5923 11.117 14.6997 10.862 14.9144C10.6071 15.1292 10.4796 15.4585 10.4796 15.9024V18.2004L17.0706 18.3722V20.8849L10.4796 21.0567V23.2473C10.4796 23.6196 10.5396 23.9131 10.6596 24.1279C10.7946 24.3283 10.967 24.4715 11.177 24.5574C11.4019 24.629 11.6344 24.6648 11.8743 24.6648H18.1504V27.3279C17.4905 27.3995 16.7557 27.4567 15.9459 27.4997C15.1511 27.5426 14.3413 27.5784 13.5164 27.6071C12.7066 27.6357 11.9343 27.65 11.1995 27.65Z" fill="url(#paint2_linear_407_16646)"/>
</g>
<defs>
<filter id="filter0_i_407_16646" x="7.15039" y="11.65" width="25" height="16.6" filterUnits="userSpaceOnUse" color-interpolation-filters="sRGB">
<feFlood flood-opacity="0" result="BackgroundImageFix"/>
<feBlend mode="normal" in="SourceGraphic" in2="BackgroundImageFix" result="shape"/>
<feColorMatrix in="SourceAlpha" type="matrix" values="0 0 0 0 0 0 0 0 0 0 0 0 0 0 0 0 0 0 127 0" result="hardAlpha"/>
<feOffset dy="0.6"/>
<feGaussianBlur stdDeviation="0.3"/>
<feComposite in2="hardAlpha" operator="arithmetic" k2="-1" k3="1"/>
<feColorMatrix type="matrix" values="0 0 0 0 1 0 0 0 0 1 0 0 0 0 1 0 0 0 0.25 0"/>
<feBlend mode="normal" in2="shape" result="effect1_innerShadow_407_16646"/>
</filter>
<linearGradient id="paint0_linear_407_16646" x1="20" y1="0" x2="20" y2="40" gradientUnits="userSpaceOnUse">
<stop stop-color="#FFF7E6"/>
<stop offset="1" stop-color="#FFE7BA"/>
</linearGradient>
<linearGradient id="paint1_linear_407_16646" x1="26.1504" y1="13.3167" x2="26.1504" y2="24.9834" gradientUnits="userSpaceOnUse">
<stop stop-color="#FA8C16"/>
<stop offset="1" stop-color="#D46B08"/>
</linearGradient>
<linearGradient id="paint2_linear_407_16646" x1="12.6504" y1="13.4278" x2="12.6504" y2="25.8722" gradientUnits="userSpaceOnUse">
<stop stop-color="#FA8C16"/>
<stop offset="1" stop-color="#D46B08"/>
</linearGradient>
</defs>
</svg>
